<svg xmlns="http://www.w3.org/2000/svg" viewBox="0 0 219.76 201.57"><defs><style>.cls-1{fill:#ffc742;}.cls-2{fill:#efa536;}.cls-3,.cls-5{fill:#fff;}.cls-4{fill:#275563;}.cls-5{opacity:0.7;}.cls-6{fill:#908152;}.cls-7,.cls-8{fill:#d9f0ff;}.cls-7{opacity:0.5;}</style></defs><title>Asset 60</title><g id="Layer_2" data-name="Layer 2"><g id="Layer_1-2" data-name="Layer 1"><path class="cls-1" d="M115,183.93c0,.27,0,.54,0,.8a16.38,16.38,0,0,1-32.72,0c0-.26,0-.53,0-.8s0-.67,0-1h0a16.38,16.38,0,0,1,32.7,0h0Q115,183.43,115,183.93Z"/><path class="cls-1" d="M179.36,183.93c0,.27,0,.54,0,.8a16.38,16.38,0,0,1-32.72,0c0-.26,0-.53,0-.8s0-.67,0-1h0a16.38,16.38,0,0,1,32.7,0h0Q179.36,183.43,179.36,183.93Z"/><path class="cls-2" d="M115,185.55a16.27,16.27,0,0,1-3.94,9.87H86.24a16.27,16.27,0,0,1-3.94-9.87Z"/><path class="cls-2" d="M179.34,185.55a16.27,16.27,0,0,1-3.94,9.87H150.56a16.27,16.27,0,0,1-3.94-9.87Z"/><path class="cls-3" d="M47.41,112.58a2,2,0,0,1-1.95-1.95v-8.21a1.95,1.95,0,0,1,3.89,0v8.21A2,2,0,0,1,47.41,112.58Z"/><path class="cls-3" d="M47.41,97.49a2,2,0,0,1-1.95-1.95V91.1a1.95,1.95,0,0,1,3.89,0v4.44A2,2,0,0,1,47.41,97.49Z"/><path class="cls-1" d="M217.59,43.38l-12,115.07a9.08,9.08,0,0,1-9,8.14H65.9L29,43.38Z"/><path class="cls-4" d="M98.66,201.57a19.65,19.65,0,1,1,19.65-19.65A19.67,19.67,0,0,1,98.66,201.57Zm0-32.76a13.11,13.11,0,1,0,13.11,13.11A13.12,13.12,0,0,0,98.66,168.81Z"/><path class="cls-4" d="M163,201.57a19.65,19.65,0,1,1,19.65-19.65A19.67,19.67,0,0,1,163,201.57Zm0-32.76a13.11,13.11,0,1,0,13.11,13.11A13.12,13.12,0,0,0,163,168.81Z"/><path class="cls-4" d="M27.39,45.36H3.27a3.27,3.27,0,0,1,0-6.54H27.39a3.27,3.27,0,0,1,0,6.54Z"/><path class="cls-4" d="M32.42,59.94H13.32a3.27,3.27,0,0,1,0-6.54h19.1a3.27,3.27,0,0,1,0,6.54Z"/><path class="cls-4" d="M35.43,74.51H21.36a3.27,3.27,0,0,1,0-6.54H35.43a3.27,3.27,0,0,1,0,6.54Z"/><path class="cls-5" d="M59.79,94.3a3.27,3.27,0,0,1-3.16-2.43L53.87,81.46a3.27,3.27,0,0,1,6.32-1.68L63,90.19a3.27,3.27,0,0,1-3.16,4.11Z"/><path class="cls-5" d="M53.07,71.07a3.27,3.27,0,0,1-3.16-2.43L48.42,63a3.27,3.27,0,0,1,6.32-1.68L56.23,67a3.27,3.27,0,0,1-3.16,4.11Z"/><rect class="cls-2" x="63.69" y="153.93" width="139.79" height="8.38"/><path class="cls-4" d="M195.71,168.85H73.38a13.24,13.24,0,0,1-12.76-9.5l-34.76-116-6.63-22.4a3.27,3.27,0,0,1,6.27-1.86l6.63,22.39,34.76,116a6.74,6.74,0,0,0,6.5,4.84H195.71a6.77,6.77,0,0,0,6.74-6.08l3.58-32.8a3.27,3.27,0,0,1,6.5.71L209,156.93A13.29,13.29,0,0,1,195.71,168.85Z"/><path class="cls-4" d="M213.07,87.47l-.36,0a3.27,3.27,0,0,1-2.89-3.61l3.37-30.73a6.78,6.78,0,0,0-6.75-7.46H58.22a3.27,3.27,0,1,1,0-6.54H206.44a13.32,13.32,0,0,1,13.25,14.7l-3.37,30.75A3.27,3.27,0,0,1,213.07,87.47Z"/><ellipse class="cls-6" cx="134.05" cy="54.15" rx="40.3" ry="40.37"/><circle class="cls-3" cx="134.37" cy="44.05" r="40.37"/><path class="cls-7" d="M175.4,43.74A40.37,40.37,0,1,1,96.74,30.92c3.31,18.65,20.48,35.44,38.29,35.44s34.07-13.5,38.29-35.44A40.16,40.16,0,0,1,175.4,43.74Z"/><path class="cls-8" d="M175.05,43.12a40.37,40.37,0,1,1-80.74,0,40.85,40.85,0,0,1,.34-5.26,40.37,40.37,0,0,0,80.06,0A40.88,40.88,0,0,1,175.05,43.12Z"/><path class="cls-4" d="M134,87.28a43.64,43.64,0,1,1,43.64-43.64A43.69,43.69,0,0,1,134,87.28Zm0-80.74a37.1,37.1,0,1,0,37.1,37.1A37.14,37.14,0,0,0,134,6.54Z"/><circle class="cls-5" cx="63.69" cy="102.21" r="3.27"/><path class="cls-4" d="M125.14,43.66a2.63,2.63,0,0,1,.49-1.62,1.52,1.52,0,0,1,1.28-.65h4.72V36.56a1.65,1.65,0,0,1,.71-1.3,2.58,2.58,0,0,1,1.67-.57,2.48,2.48,0,0,1,1.68.57,1.68,1.68,0,0,1,.66,1.3v4.83H141a1.67,1.67,0,0,1,1.28.67,2.38,2.38,0,0,1,.57,1.6,2.34,2.34,0,0,1-.55,1.6,1.68,1.68,0,0,1-1.3.63h-4.67v4.88a1.6,1.6,0,0,1-.64,1.32,2.67,2.67,0,0,1-1.7.5,2.79,2.79,0,0,1-1.7-.5,1.56,1.56,0,0,1-.68-1.32V45.89h-4.72a1.55,1.55,0,0,1-1.28-.61A2.52,2.52,0,0,1,125.14,43.66Z"/><path class="cls-4" d="M210.27,114.68H210a3.27,3.27,0,0,1-3-3.52l.48-6a3.27,3.27,0,1,1,6.52.53l-.48,6A3.27,3.27,0,0,1,210.27,114.68Z"/><path class="cls-4" d="M211.6,98.38h-.27a3.27,3.27,0,0,1-3-3.52l0-.25a3.27,3.27,0,0,1,6.52.52l0,.25A3.27,3.27,0,0,1,211.6,98.38Z"/></g></g></svg>