<svg xmlns="http://www.w3.org/2000/svg" viewBox="0 0 188.79 120.34"><defs><style>.cls-1{fill:#ffc742;}.cls-2{fill:#275563;}.cls-3{fill:#f7ead0;}.cls-3,.cls-9{opacity:0.5;}.cls-4,.cls-7{fill:#fff;}.cls-5{fill:#efa536;}.cls-6,.cls-7{opacity:0.7;}.cls-8{fill:#908152;}.cls-10,.cls-9{fill:#d9f0ff;}</style></defs><title>Asset 140</title><g id="Layer_2" data-name="Layer 2"><g id="Layer_1-2" data-name="Layer 1"><path class="cls-1" d="M185.52,10.58V109a7.3,7.3,0,0,1-7.31,7.31h-14l-1.38,2,.5-.87.76-1.13H10.58A7.32,7.32,0,0,1,3.27,109V10.58a7.31,7.31,0,0,1,7.31-7.31H178.21A7.3,7.3,0,0,1,185.52,10.58Z"/><path class="cls-2" d="M132.62,80.77h-34a3.27,3.27,0,0,1,0-6.54h34a3.27,3.27,0,1,1,0,6.54Z"/><path class="cls-2" d="M155.23,95.09H98.57a3.27,3.27,0,0,1,0-6.54h56.66a3.27,3.27,0,1,1,0,6.54Z"/><rect class="cls-3" x="4.73" y="5.79" width="180.84" height="7.89"/><polyline class="cls-4" points="183.21 32.68 185.52 32.68 185.52 60.45 3.27 60.45 3.27 32.68 114.15 32.68"/><path class="cls-2" d="M185.21,35.95H3.27a3.27,3.27,0,1,1,0-6.54H185.21a3.27,3.27,0,1,1,0,6.54Z"/><path class="cls-2" d="M185.21,63.71H3.27a3.27,3.27,0,0,1,0-6.54H185.21a3.27,3.27,0,1,1,0,6.54Z"/><rect class="cls-5" x="4.72" y="108.58" width="179.01" height="7.46"/><g class="cls-6"><path class="cls-4" d="M13.31,94.41A2.45,2.45,0,0,1,10.86,92V82.75a2.45,2.45,0,0,1,4.9,0V92A2.45,2.45,0,0,1,13.31,94.41Z"/><path class="cls-4" d="M13.31,77.47A2.45,2.45,0,0,1,10.86,75V70a2.45,2.45,0,1,1,4.9,0v5A2.45,2.45,0,0,1,13.31,77.47Z"/></g><circle class="cls-7" cx="13.28" cy="100.11" r="2.91"/><ellipse class="cls-8" cx="54.26" cy="64.61" rx="35.88" ry="35.94"/><circle class="cls-4" cx="54.55" cy="55.62" r="35.94"/><path class="cls-9" d="M91.07,55.34A35.94,35.94,0,1,1,21,43.93C24,60.53,39.27,75.48,55.13,75.48s30.32-12,34.08-31.55A35.74,35.74,0,0,1,91.07,55.34Z"/><path class="cls-10" d="M90.76,54.79a35.94,35.94,0,1,1-71.87,0,36.36,36.36,0,0,1,.3-4.68,35.94,35.94,0,0,0,71.27,0A36.39,36.39,0,0,1,90.76,54.79Z"/><path class="cls-2" d="M53.62,93.47A39.21,39.21,0,1,1,92.83,54.27,39.25,39.25,0,0,1,53.62,93.47Zm0-71.87A32.67,32.67,0,1,0,86.29,54.27,32.7,32.7,0,0,0,53.62,21.6Z"/><path class="cls-2" d="M178.21,119.57H125.88a3.27,3.27,0,0,1,0-6.54h52.34a4,4,0,0,0,4-4V10.58a4,4,0,0,0-4-4H10.58a4,4,0,0,0-4,4V109a4,4,0,0,0,4,4H80.91a3.27,3.27,0,0,1,0,6.54H10.58A10.59,10.59,0,0,1,0,109V10.58A10.59,10.59,0,0,1,10.58,0H178.21a10.59,10.59,0,0,1,10.58,10.58V109A10.59,10.59,0,0,1,178.21,119.57Z"/><path class="cls-2" d="M44.76,54.29a2.63,2.63,0,0,1,.49-1.62A1.52,1.52,0,0,1,46.52,52h4.72V47.19a1.65,1.65,0,0,1,.71-1.3,2.58,2.58,0,0,1,1.67-.57,2.48,2.48,0,0,1,1.68.57,1.68,1.68,0,0,1,.66,1.3V52h4.67a1.67,1.67,0,0,1,1.28.67,2.38,2.38,0,0,1,.57,1.6,2.34,2.34,0,0,1-.55,1.6,1.68,1.68,0,0,1-1.3.63H56v4.88a1.6,1.6,0,0,1-.64,1.32,2.67,2.67,0,0,1-1.7.5,2.79,2.79,0,0,1-1.7-.5,1.56,1.56,0,0,1-.68-1.32V56.51H46.52a1.55,1.55,0,0,1-1.28-.61A2.52,2.52,0,0,1,44.76,54.29Z"/><path class="cls-2" d="M96,120.34a3.27,3.27,0,0,1,0-6.54l6-.08a3.27,3.27,0,1,1,.08,6.54l-6,.08Z"/><path class="cls-2" d="M112.32,120.13a3.27,3.27,0,0,1,0-6.54h.29a3.27,3.27,0,0,1,0,6.54h-.29Z"/></g></g></svg>