<svg xmlns="http://www.w3.org/2000/svg" viewBox="0 0 205.8 190.24"><defs><style>.cls-1{fill:#ffc742;}.cls-2,.cls-8{fill:#fff;}.cls-3{fill:#275563;}.cls-4{fill:#f7ead0;}.cls-4,.cls-9{opacity:0.5;}.cls-5{fill:#908152;}.cls-6{fill:#efa536;}.cls-7,.cls-8{opacity:0.7;}.cls-10,.cls-9{fill:#d9f0ff;}</style></defs><title>Asset 110</title><g id="Layer_2" data-name="Layer 2"><g id="Layer_1-2" data-name="Layer 1"><path class="cls-1" d="M6.38,111.17l74.06,74.06a7.82,7.82,0,0,0,11.05,0l1.66-1.66,39.07-39.07,22.86-22.86,9.79-9.79c4.36-4.35,9.24-8.37,12.71-13.52,4-5.86,4-11.75,4.53-18.52l1.22-15.28,2.72-34,.79-9.92C187.65,10.6,180,3,169.93,3.9L115.61,8.73c-5.62.5-11.41.33-16.87,2-6.32,1.88-9.85,6.37-14.34,10.86L63.15,42.8,16.34,89.61,7.76,98.19,6.11,99.85a7.82,7.82,0,0,0,0,11.05Z"/><path class="cls-2" d="M173.17,36.1c0,.28,0,.56,0,.83a17.17,17.17,0,0,1-4,10.24,16.16,16.16,0,0,1-25,0,17.17,17.17,0,0,1-4-10.24c0-.27,0-.55,0-.83s0-.69,0-1h0a16.48,16.48,0,0,1,32.94,0h0Q173.17,35.58,173.17,36.1Z"/><path class="cls-3" d="M156.67,54.29A20,20,0,0,1,136.9,34a19.78,19.78,0,1,1,39.54,0A20,20,0,0,1,156.67,54.29Zm0-34A13.5,13.5,0,0,0,143.44,34a13.24,13.24,0,1,0,26.46,0A13.5,13.5,0,0,0,156.67,20.29Z"/><polygon class="cls-4" points="101.39 8.53 110.5 12.51 11.7 111.17 5.15 104.62 101.39 8.53"/><path class="cls-3" d="M107.4,29.83a3.26,3.26,0,0,1-2.31-1l-2.6-2.6a3.27,3.27,0,0,1,4.63-4.62l2.6,2.6a3.27,3.27,0,0,1-2.31,5.58Z"/><path class="cls-3" d="M153.81,76.24a3.26,3.26,0,0,1-2.31-1l-5.35-5.35a3.27,3.27,0,1,1,4.62-4.62l5.35,5.35a3.27,3.27,0,0,1-2.31,5.58ZM138.34,60.77a3.26,3.26,0,0,1-2.31-1l-5.35-5.35a3.27,3.27,0,0,1,4.62-4.62l5.35,5.35a3.27,3.27,0,0,1-2.31,5.58ZM122.87,45.3a3.26,3.26,0,0,1-2.31-1L115.21,39a3.27,3.27,0,1,1,4.62-4.62l5.35,5.35a3.27,3.27,0,0,1-2.31,5.58Z"/><path class="cls-3" d="M166.53,89a3.26,3.26,0,0,1-2.31-1l-2.6-2.6a3.27,3.27,0,1,1,4.62-4.62l2.6,2.6A3.27,3.27,0,0,1,166.53,89Z"/><path class="cls-3" d="M174.59,45.62c-9.46,0-18.7-4.17-27.13-8-1.51-.68-3-1.35-4.44-2a3.27,3.27,0,0,1,2.6-6c1.48.64,3,1.32,4.53,2,10.86,4.9,22.08,10,32.55,5.92l18.64-7.26a3.27,3.27,0,1,1,2.37,6.09L185.07,43.7A28.77,28.77,0,0,1,174.59,45.62Z"/><ellipse class="cls-5" cx="61.42" cy="49.06" rx="37.28" ry="37.34"/><path class="cls-3" d="M63.57,121.56A3.27,3.27,0,0,1,61.26,116L87.18,90a3.27,3.27,0,1,1,4.63,4.62L65.88,120.6A3.26,3.26,0,0,1,63.57,121.56Z"/><path class="cls-3" d="M74.49,132.46a3.27,3.27,0,0,1-2.31-5.58l43.14-43.17a3.27,3.27,0,1,1,4.63,4.62L76.8,131.5A3.26,3.26,0,0,1,74.49,132.46Z"/><path class="cls-3" d="M85.4,143.37a3.27,3.27,0,0,1-2.31-5.58l43.14-43.17a3.27,3.27,0,1,1,4.63,4.62L87.72,142.41A3.26,3.26,0,0,1,85.4,143.37Z"/><path class="cls-6" d="M179.44,88.46h0a6.33,6.33,0,0,1,0,8.95L87.59,188.95l-4.47-4.48Z"/><g class="cls-7"><path class="cls-2" d="M56.16,147.26a2.45,2.45,0,0,1-1.7-.68l-7.18-6.91a2.45,2.45,0,1,1,3.4-3.54L57.86,143a2.45,2.45,0,0,1-1.7,4.22Z"/><path class="cls-2" d="M66.07,156.8a2.44,2.44,0,0,1-1.7-.69l-3.88-3.74a2.45,2.45,0,0,1,3.4-3.53l3.88,3.74a2.45,2.45,0,0,1-1.7,4.22Z"/></g><circle class="cls-8" cx="40.95" cy="130.13" r="3.15" transform="translate(-81.21 69.41) rotate(-46.1)"/><path class="cls-3" d="M85.42,190.24A11,11,0,0,1,77.58,187L3.24,112.66A11.1,11.1,0,0,1,3.24,97l78.3-78.3c.68-.67,1.33-1.35,2-2C87.24,12.81,91.09,8.83,97.26,7a55.78,55.78,0,0,1,13-1.77c1.56-.09,3-.17,4.52-.3L169.09.09A18.71,18.71,0,0,1,184.21,5.3a18.68,18.68,0,0,1,5.34,15l-4.74,59.2c-.06.68-.1,1.36-.15,2-.46,6.21-.89,12.07-4.92,18.06a66.79,66.79,0,0,1-9.81,10.81c-1.1,1-2.24,2.13-3.3,3.19l-23.83,23.83a3.27,3.27,0,1,1-4.62-4.62L162,109c1.13-1.12,2.29-2.23,3.42-3.31,3.34-3.17,6.49-6.17,8.89-9.73,3.06-4.54,3.4-9.1,3.82-14.88.05-.68.1-1.37.16-2.07L183,19.82a12.24,12.24,0,0,0-3.42-9.88,12.28,12.28,0,0,0-9.94-3.34l-54.32,4.84c-1.59.14-3.19.23-4.74.32a50.14,50.14,0,0,0-11.49,1.51c-4.52,1.35-7.48,4.4-10.91,7.94-.67.69-1.35,1.39-2,2.09l-78.3,78.3a4.55,4.55,0,0,0,0,6.43L82.2,182.37a4.55,4.55,0,0,0,6.43,0l1.66-1.66c4.34-4.34,7.69-7.48,10.94-10.52s6.52-6.11,10.78-10.38a3.27,3.27,0,0,1,4.62,4.62c-4.34,4.34-7.69,7.48-10.93,10.52s-6.52,6.11-10.78,10.38L93.26,187A11.06,11.06,0,0,1,85.42,190.24Z"/><circle class="cls-2" cx="55.42" cy="42.87" r="37.34"/><path class="cls-9" d="M92.58,41.79A37.34,37.34,0,1,1,19.83,29.93c3.07,17.25,18.94,32.78,35.41,32.78S86.75,50.23,90.65,29.93A37.14,37.14,0,0,1,92.58,41.79Z"/><path class="cls-10" d="M92.26,41.22a37.34,37.34,0,1,1-74.68,0,37.78,37.78,0,0,1,.32-4.87,37.34,37.34,0,0,0,74,0A37.81,37.81,0,0,1,92.26,41.22Z"/><path class="cls-3" d="M39.42,38.53v-6a5.3,5.3,0,0,1,1.65-4.33,6.82,6.82,0,0,1,4.48-1.38A6.92,6.92,0,0,1,50,28.19a5.25,5.25,0,0,1,1.7,4.33v6a5.25,5.25,0,0,1-1.69,4.33,6.91,6.91,0,0,1-4.49,1.38,6.82,6.82,0,0,1-4.49-1.37A5.3,5.3,0,0,1,39.42,38.53Zm4.05,0a1.82,1.82,0,0,0,2.09,2q2.13,0,2.13-2v-6q0-2-2.13-2a1.82,1.82,0,0,0-2.09,2Zm2.24,18.87a1.82,1.82,0,0,1,.21-.8L60.44,26.13a1.77,1.77,0,0,1,1.74-1.06,2.66,2.66,0,0,1,1.71.63,2,2,0,0,1,.78,1.6,1.81,1.81,0,0,1-.16.8L49.95,58.57a1.87,1.87,0,0,1-1.86,1.06,2.26,2.26,0,0,1-1.69-.69A2.17,2.17,0,0,1,45.71,57.39ZM58.52,52.1v-6a5.3,5.3,0,0,1,1.65-4.33,6.82,6.82,0,0,1,4.48-1.38,6.92,6.92,0,0,1,4.5,1.37,5.25,5.25,0,0,1,1.7,4.33v6a5.25,5.25,0,0,1-1.69,4.33,6.92,6.92,0,0,1-4.49,1.38,6.82,6.82,0,0,1-4.49-1.37A5.3,5.3,0,0,1,58.52,52.1Zm4.05,0a1.82,1.82,0,0,0,2.09,2q2.13,0,2.13-2v-6q0-2-2.13-2a1.82,1.82,0,0,0-2.09,2Z"/><path class="cls-3" d="M55,82A40.61,40.61,0,1,1,95.66,41.4,40.66,40.66,0,0,1,55,82ZM55,7.33A34.07,34.07,0,1,0,89.12,41.4,34.11,34.11,0,0,0,55,7.33Z"/><path class="cls-3" d="M122.49,157.37a3.27,3.27,0,0,1-2.34-5.55l4.17-4.28a3.27,3.27,0,0,1,4.68,4.56l-4.17,4.28A3.26,3.26,0,0,1,122.49,157.37Z"/><path class="cls-3" d="M133.9,145.66a3.27,3.27,0,0,1-2.34-5.56l.17-.18a3.27,3.27,0,1,1,4.68,4.57l-.17.18A3.26,3.26,0,0,1,133.9,145.66Z"/></g></g></svg>