<svg xmlns="http://www.w3.org/2000/svg" viewBox="0 0 182.7 186.04"><defs><style>.cls-1{fill:#ffc742;}.cls-2{fill:#f7ead0;}.cls-2,.cls-7{opacity:0.5;}.cls-3{fill:#efa536;}.cls-4{fill:#275563;}.cls-5{fill:#908152;}.cls-10,.cls-6{fill:#fff;}.cls-7,.cls-8{fill:#d9f0ff;}.cls-10,.cls-9{opacity:0.7;}</style></defs><title>Asset 80</title><g id="Layer_2" data-name="Layer 2"><g id="Layer_1-2" data-name="Layer 1"><path class="cls-1" d="M167.24,54.28a10.74,10.74,0,0,0-10.69-9.63H26.14a10.74,10.74,0,0,0-10.69,9.63L3.33,170.91A10.74,10.74,0,0,0,14,182.77H168.68a10.74,10.74,0,0,0,10.69-11.86Z"/><rect class="cls-2" x="17.16" y="47.71" width="148.38" height="8.55"/><rect class="cls-3" x="4.91" y="171.2" width="172.88" height="8.55"/><path class="cls-4" d="M168.68,186H14A14,14,0,0,1,.07,170.57L12.21,53.94A14,14,0,0,1,26.14,41.38H156.55a14,14,0,0,1,13.94,12.56l3,29.2a3.27,3.27,0,1,1-6.5.68l-3-29.2a7.46,7.46,0,0,0-7.43-6.7H26.14a7.46,7.46,0,0,0-7.43,6.7L6.58,171.25A7.48,7.48,0,0,0,14,179.5H168.68a7.47,7.47,0,0,0,7.43-8.25l-4.24-40.8a3.27,3.27,0,0,1,6.5-.68l4.24,40.8A14,14,0,0,1,168.68,186Z"/><path class="cls-4" d="M137.91,53.1a3.27,3.27,0,0,1-3.27-3.27,43.29,43.29,0,0,0-86.59,0,3.27,3.27,0,0,1-6.54,0,49.83,49.83,0,0,1,99.67,0A3.27,3.27,0,0,1,137.91,53.1Z"/><ellipse class="cls-5" cx="91.35" cy="87.7" rx="36.28" ry="36.34"/><circle class="cls-6" cx="91.35" cy="78.61" r="36.34"/><path class="cls-7" d="M127.69,78.33A36.34,36.34,0,1,1,56.88,66.79c3,16.79,18.43,31.9,34.46,31.9S122,86.54,125.81,66.79A36.15,36.15,0,0,1,127.69,78.33Z"/><path class="cls-8" d="M127.69,77.77a36.34,36.34,0,1,1-72.68,0A36.77,36.77,0,0,1,55.32,73a36.34,36.34,0,0,0,72.07,0A36.79,36.79,0,0,1,127.69,77.77Z"/><path class="cls-4" d="M91.35,117.58A39.61,39.61,0,1,1,131,78,39.66,39.66,0,0,1,91.35,117.58Zm0-72.68A33.07,33.07,0,1,0,124.42,78,33.11,33.11,0,0,0,91.35,44.89Z"/><path class="cls-4" d="M74.69,73.91V67.56A5.62,5.62,0,0,1,76.44,63a7.23,7.23,0,0,1,4.75-1.46A7.33,7.33,0,0,1,86,63a5.57,5.57,0,0,1,1.8,4.59V73.9A5.56,5.56,0,0,1,86,78.49a7.33,7.33,0,0,1-4.76,1.46,7.23,7.23,0,0,1-4.76-1.45A5.62,5.62,0,0,1,74.69,73.91Zm4.3,0a1.93,1.93,0,0,0,2.22,2.15q2.26,0,2.26-2.15V67.55q0-2.15-2.26-2.15A1.93,1.93,0,0,0,79,67.55Zm2.37,20a1.93,1.93,0,0,1,.22-.85L97,60.77a1.87,1.87,0,0,1,1.84-1.12,2.82,2.82,0,0,1,1.82.67,2.1,2.1,0,0,1,.83,1.7,1.92,1.92,0,0,1-.17.85L85.86,95.16a2,2,0,0,1-2,1.12,2.4,2.4,0,0,1-1.79-.74A2.3,2.3,0,0,1,81.36,93.91ZM94.94,88.3V81.94a5.62,5.62,0,0,1,1.75-4.59,7.23,7.23,0,0,1,4.75-1.46,7.34,7.34,0,0,1,4.77,1.45,5.57,5.57,0,0,1,1.8,4.59v6.36a5.56,5.56,0,0,1-1.79,4.59,7.33,7.33,0,0,1-4.76,1.46,7.23,7.23,0,0,1-4.76-1.45A5.62,5.62,0,0,1,94.94,88.3Zm4.3,0a1.93,1.93,0,0,0,2.22,2.15q2.26,0,2.26-2.15V81.93q0-2.15-2.26-2.15a1.93,1.93,0,0,0-2.21,2.15Z"/><path class="cls-4" d="M173.17,118.19a3.27,3.27,0,0,1-3.25-2.93l-.61-5.94a3.27,3.27,0,1,1,6.5-.67l.61,5.94a3.27,3.27,0,0,1-2.92,3.59Z"/><path class="cls-4" d="M171.49,101.92A3.27,3.27,0,0,1,168.24,99l0-.25a3.27,3.27,0,1,1,6.5-.67l0,.25a3.27,3.27,0,0,1-2.92,3.59Z"/><g class="cls-9"><path class="cls-6" d="M23.44,119.64h-.22A2.45,2.45,0,0,1,21,117l.81-9.26a2.45,2.45,0,1,1,4.89.43l-.81,9.26A2.45,2.45,0,0,1,23.44,119.64Z"/><path class="cls-6" d="M24.94,102.62h-.22a2.45,2.45,0,0,1-2.23-2.66l.44-5a2.45,2.45,0,0,1,4.89.43l-.44,5A2.45,2.45,0,0,1,24.94,102.62Z"/></g><circle class="cls-10" cx="22.43" cy="128.3" r="2.94" transform="translate(-107.35 139.4) rotate(-84.97)"/></g></g></svg>